<?xml version="1.0" encoding="utf-8"?>
<!-- Generator: Adobe Illustrator 24.3.0, SVG Export Plug-In . SVG Version: 6.00 Build 0)  -->
<svg version="1.1" id="Layer_1" xmlns="http://www.w3.org/2000/svg" xmlns:xlink="http://www.w3.org/1999/xlink" x="0px" y="0px"
	 viewBox="0 0 1920 1080" enable-background="new 0 0 1920 1080" xml:space="preserve">
<g>
	<path fill="#F7941D" d="M183.13,391.349v197.485c0,29.767-8.446,54.346-25.33,73.735c-16.887,19.394-38.283,29.086-64.183,29.086
		c-7.587,0-16.458-1.646-26.617-4.936v-84.361c4.293,1.861,8.227,2.791,11.806,2.791c11.447,0,17.173-9.23,17.173-27.691V391.349
		H183.13z"/>
	<path fill="#F7941D" d="M227.135,473.348h80.282v120.853c0,12.164,5.078,18.245,15.241,18.245c10.015,0,15.026-6.081,15.026-18.245
		V473.348h80.282v119.35c0,27.765-9.23,51.196-27.691,70.3c-18.461,19.105-41.073,28.657-67.832,28.657
		c-30.482,0-55.026-11.089-73.628-33.272c-14.455-17.313-21.68-41.355-21.68-72.124V473.348z"/>
	<path fill="#F7941D" d="M758.413,684.357h-80.283V568.871c0-8.872-0.932-15.026-2.79-18.461c-1.862-3.434-5.225-5.152-10.089-5.152
		c-9.016,0-13.524,7.942-13.524,23.827v115.271h-80.282V568.871c0-8.872-0.966-15.026-2.898-18.461
		c-1.932-3.434-5.333-5.152-10.196-5.152c-8.875,0-13.309,7.942-13.309,23.827v115.271h-80.282v-131.8
		c0-24.042,8.083-44.468,24.256-61.285c16.17-16.814,35.774-25.223,58.816-25.223c23.753,0,45.078,10.019,63.968,30.052
		c21.036-20.033,42.073-30.052,63.109-30.052c26.758,0,48.225,9.734,64.397,29.194c12.735,15.171,19.105,37.28,19.105,66.329
		V684.357z"/>
	<path fill="#F7941D" d="M908.674,319.879v259.694c0,42.171,15.15,63.254,45.456,63.254c12.923,0,23.889-4.394,32.898-13.192
		c9.006-8.788,13.51-19.439,13.51-31.944c0-12.923-4.24-23.784-12.714-32.581c-8.478-8.791-18.863-13.192-31.152-13.192
		c-8.69,0-18.649,3.815-29.879,11.443v-130.96c13.987-1.272,24.582-1.907,31.786-1.907c44.711,0,83.013,16.107,114.91,48.316
		c31.889,32.213,47.837,70.993,47.837,116.337c0,46.407-16.211,85.505-48.633,117.291c-32.422,31.788-72.264,47.681-119.516,47.681
		c-23.735,0-46.885-5.195-69.452-15.575c-22.569-10.382-41.165-24.367-55.786-41.959c-25.429-30.514-38.143-70.035-38.143-118.563
		V319.879H908.674z"/>
	<path fill="#F7941D" d="M1277.538,319.879v259.694c0,42.171,15.148,63.254,45.454,63.254c12.923,0,23.889-4.394,32.898-13.192
		c9.005-8.788,13.51-19.439,13.51-31.944c0-12.923-4.242-23.784-12.714-32.581c-8.478-8.791-18.863-13.192-31.15-13.192
		c-8.692,0-18.651,3.815-29.88,11.443v-130.96c13.987-1.272,24.582-1.907,31.788-1.907c44.709,0,83.011,16.107,114.906,48.316
		c31.891,32.213,47.839,70.993,47.839,116.337c0,46.407-16.211,85.505-48.633,117.291c-32.422,31.788-72.264,47.681-119.516,47.681
		c-23.735,0-46.885-5.195-69.454-15.575c-22.567-10.382-41.163-24.367-55.784-41.959c-25.428-30.514-38.144-70.035-38.144-118.563
		V319.879H1277.538z"/>
	<rect x="1514.484" y="391.349" fill="#F7941D" width="80.282" height="293.008"/>
	<path fill="#F7941D" d="M1852.141,590.337H1730.43c-1.861-6.151-2.79-11.806-2.79-16.959c0-7.154,1.288-14.166,3.863-21.036h40.786
		c-2.865-15.885-11.806-23.827-26.833-23.827c-10.019,0-18.176,4.259-24.471,12.772c-6.298,8.516-9.445,19.425-9.445,32.736
		c0,13.882,3.039,25.114,9.123,33.701c6.081,8.586,14.06,12.878,23.934,12.878c8.013,0,15.74-4.004,23.183-12.021l45.722,54.953
		c-21.325,16.743-45.007,25.115-71.052,25.115c-31.769,0-58.461-10.659-80.067-31.985c-21.609-21.321-32.413-47.724-32.413-79.209
		c0-31.34,10.911-57.813,32.736-79.423c21.821-21.607,48.62-32.413,80.389-32.413c31.052,0,57.133,10.555,78.243,31.662
		C1842.445,518.393,1853,544.4,1853,575.312C1853,578.46,1852.712,583.467,1852.141,590.337z"/>
</g>
</svg>
